<svg width="412" height="99" viewBox="0 0 412 99" fill="none" xmlns="http://www.w3.org/2000/svg">
<path fill-rule="evenodd" clip-rule="evenodd" d="M412 0H0V12.375H412V0ZM0 86.625V99H412V86.625H0Z" fill="white"/>
<path d="M42.4062 72.625C40.1354 72.625 38.0417 72.0417 36.125 70.875C34.2292 69.7083 32.7083 68.1562 31.5625 66.2188C30.4375 64.2604 29.875 62.1146 29.875 59.7812V56.8438C29.875 56.6146 29.9792 56.5 30.1875 56.5H37.375C37.5417 56.5 37.625 56.6146 37.625 56.8438V59.7812C37.625 61.1771 38.0938 62.3854 39.0312 63.4062C39.9688 64.4062 41.0938 64.9062 42.4062 64.9062C43.7396 64.9062 44.875 64.3958 45.8125 63.375C46.75 62.3333 47.2188 61.1354 47.2188 59.7812C47.2188 58.2188 46.1979 56.8542 44.1562 55.6875C43.8229 55.4792 43.3854 55.2292 42.8438 54.9375C42.3229 54.625 41.6979 54.2708 40.9688 53.875C40.2396 53.4792 39.5312 53.0938 38.8438 52.7188C38.1562 52.3229 37.4896 51.9479 36.8438 51.5938C34.5104 50.2188 32.7708 48.5 31.625 46.4375C30.5 44.3542 29.9375 42.0208 29.9375 39.4375C29.9375 37.0625 30.5208 34.9167 31.6875 33C32.8542 31.1042 34.375 29.6042 36.25 28.5C38.1458 27.375 40.1979 26.8125 42.4062 26.8125C44.6771 26.8125 46.7604 27.375 48.6562 28.5C50.5521 29.6458 52.0625 31.1667 53.1875 33.0625C54.3333 34.9583 54.9062 37.0833 54.9062 39.4375V44.6875C54.9062 44.8542 54.8229 44.9375 54.6562 44.9375H47.4688C47.3021 44.9375 47.2188 44.8542 47.2188 44.6875L47.1562 39.4375C47.1562 37.9375 46.6875 36.7188 45.75 35.7812C44.8125 34.8438 43.6979 34.375 42.4062 34.375C41.0938 34.375 39.9688 34.875 39.0312 35.875C38.0938 36.875 37.625 38.0625 37.625 39.4375C37.625 40.8333 37.9167 42 38.5 42.9375C39.1042 43.875 40.1979 44.7708 41.7812 45.625C41.9479 45.7083 42.3333 45.9167 42.9375 46.25C43.5417 46.5833 44.2083 46.9583 44.9375 47.375C45.6875 47.7708 46.3646 48.1354 46.9688 48.4688C47.5729 48.7812 47.9375 48.9688 48.0625 49.0312C50.1875 50.2188 51.8646 51.6771 53.0938 53.4062C54.3438 55.1354 54.9688 57.2604 54.9688 59.7812C54.9688 62.2188 54.4062 64.4062 53.2812 66.3438C52.1354 68.2812 50.6146 69.8125 48.7188 70.9375C46.8229 72.0625 44.7188 72.625 42.4062 72.625ZM70.1687 72H62.9188C62.7104 72 62.6063 71.8958 62.6063 71.6875L62.6688 27.7188C62.6688 27.5521 62.7521 27.4688 62.9188 27.4688H70.1062C70.2729 27.4688 70.3562 27.5521 70.3562 27.7188L70.4187 71.6875C70.4187 71.8958 70.3354 72 70.1687 72ZM86.7438 72H79.4938C79.3271 72 79.2438 71.8958 79.2438 71.6875L79.3688 27.7188C79.3688 27.5521 79.4521 27.4688 79.6188 27.4688H87.4313C87.5979 27.4688 87.7438 27.5521 87.8688 27.7188L93.7125 36.1562L99.525 27.7188C99.65 27.5521 99.8063 27.4688 99.9938 27.4688H107.838C108.025 27.4688 108.119 27.5521 108.119 27.7188L108.244 71.6875C108.244 71.8958 108.16 72 107.994 72H100.744C100.577 72 100.494 71.8958 100.494 71.6875L100.431 39.0312L93.7125 48.7812L87.0563 39.0312L86.9938 71.6875C86.9938 71.8958 86.9104 72 86.7438 72ZM124.319 72H117.131C116.923 72 116.819 71.8958 116.819 71.6875L116.944 27.7188C116.944 27.5521 117.027 27.4688 117.194 27.4688H129.506C133.423 27.4688 136.517 28.6667 138.788 31.0625C141.079 33.4375 142.225 36.6771 142.225 40.7812C142.225 43.7812 141.631 46.3958 140.444 48.625C139.235 50.8333 137.673 52.5417 135.756 53.75C133.84 54.9583 131.756 55.5625 129.506 55.5625H124.631V71.6875C124.631 71.8958 124.527 72 124.319 72ZM129.506 35.0625L124.631 35.125V47.8125H129.506C130.86 47.8125 132.038 47.1667 133.038 45.875C134.038 44.5625 134.538 42.8646 134.538 40.7812C134.538 39.1146 134.09 37.75 133.194 36.6875C132.298 35.6042 131.069 35.0625 129.506 35.0625ZM170.706 72H150.019C149.852 72 149.769 71.8958 149.769 71.6875L149.831 27.7812C149.831 27.5729 149.935 27.4688 150.144 27.4688H157.269C157.477 27.4688 157.581 27.5729 157.581 27.7812L157.519 64.125H170.706C170.915 64.125 171.019 64.2292 171.019 64.4375V71.6875C171.019 71.8958 170.915 72 170.706 72ZM199.344 72H178.656C178.49 72 178.406 71.8958 178.406 71.6875L178.469 27.7188C178.469 27.5521 178.552 27.4688 178.719 27.4688H199.281C199.448 27.4688 199.531 27.5729 199.531 27.7812V34.9375C199.531 35.1042 199.448 35.1875 199.281 35.1875H186.156V45.1875H199.281C199.448 45.1875 199.531 45.2708 199.531 45.4375L199.594 52.6875C199.594 52.8542 199.51 52.9375 199.344 52.9375H186.156V64.125H199.344C199.51 64.125 199.594 64.2292 199.594 64.4375V71.75C199.594 71.9167 199.51 72 199.344 72ZM240.087 72.625C237.775 72.625 235.66 72.0417 233.744 70.875C231.848 69.7083 230.337 68.1458 229.212 66.1875C228.108 64.2083 227.556 62.0104 227.556 59.5938L227.619 39.625C227.619 37.25 228.16 35.1042 229.244 33.1875C230.327 31.25 231.817 29.6979 233.712 28.5312C235.629 27.3438 237.754 26.75 240.087 26.75C242.462 26.75 244.577 27.3229 246.431 28.4688C248.306 29.6146 249.796 31.1667 250.9 33.125C252.025 35.0625 252.587 37.2292 252.587 39.625V42.5625C252.587 42.7292 252.504 42.8125 252.337 42.8125H245.15C244.983 42.8125 244.9 42.7292 244.9 42.5625V39.625C244.9 38.2083 244.442 36.9896 243.525 35.9688C242.608 34.9479 241.462 34.4375 240.087 34.4375C238.567 34.4375 237.4 34.9583 236.587 36C235.775 37.0417 235.369 38.25 235.369 39.625V59.5938C235.369 61.1562 235.827 62.4375 236.744 63.4375C237.66 64.4167 238.775 64.9062 240.087 64.9062C241.462 64.9062 242.608 64.3646 243.525 63.2812C244.442 62.1771 244.9 60.9479 244.9 59.5938V56.625C244.9 56.4583 244.983 56.375 245.15 56.375H252.4C252.567 56.375 252.65 56.4583 252.65 56.625V59.5938C252.65 61.9896 252.087 64.1771 250.962 66.1562C249.817 68.1146 248.306 69.6875 246.431 70.875C244.556 72.0417 242.442 72.625 240.087 72.625ZM281.444 72H260.756C260.59 72 260.506 71.8958 260.506 71.6875L260.569 27.7812C260.569 27.5729 260.673 27.4688 260.881 27.4688H268.006C268.215 27.4688 268.319 27.5729 268.319 27.7812L268.256 64.125H281.444C281.652 64.125 281.756 64.2292 281.756 64.4375V71.6875C281.756 71.8958 281.652 72 281.444 72ZM296.706 72H289.456C289.248 72 289.144 71.8958 289.144 71.6875L289.206 27.7188C289.206 27.5521 289.29 27.4688 289.456 27.4688H296.644C296.81 27.4688 296.894 27.5521 296.894 27.7188L296.956 71.6875C296.956 71.8958 296.873 72 296.706 72ZM312.75 72H306.344C306.01 72 305.844 71.8542 305.844 71.5625L305.781 27.9688C305.781 27.6354 305.948 27.4688 306.281 27.4688H312.062L322.875 52.6875L322.562 27.9688C322.562 27.6354 322.75 27.4688 323.125 27.4688H329.469C329.719 27.4688 329.844 27.6354 329.844 27.9688L329.906 71.625C329.906 71.875 329.802 72 329.594 72H323.969L312.875 48.4375L313.344 71.5C313.344 71.8333 313.146 72 312.75 72ZM346.231 72H338.981C338.773 72 338.669 71.8958 338.669 71.6875L338.731 27.7188C338.731 27.5521 338.815 27.4688 338.981 27.4688H346.169C346.335 27.4688 346.419 27.5521 346.419 27.7188L346.481 71.6875C346.481 71.8958 346.398 72 346.231 72ZM367.087 72.625C364.775 72.625 362.66 72.0417 360.744 70.875C358.848 69.7083 357.337 68.1458 356.212 66.1875C355.108 64.2083 354.556 62.0104 354.556 59.5938L354.619 39.625C354.619 37.25 355.16 35.1042 356.244 33.1875C357.327 31.25 358.817 29.6979 360.712 28.5312C362.629 27.3438 364.754 26.75 367.087 26.75C369.462 26.75 371.577 27.3229 373.431 28.4688C375.306 29.6146 376.796 31.1667 377.9 33.125C379.025 35.0625 379.587 37.2292 379.587 39.625V42.5625C379.587 42.7292 379.504 42.8125 379.337 42.8125H372.15C371.983 42.8125 371.9 42.7292 371.9 42.5625V39.625C371.9 38.2083 371.442 36.9896 370.525 35.9688C369.608 34.9479 368.462 34.4375 367.087 34.4375C365.567 34.4375 364.4 34.9583 363.587 36C362.775 37.0417 362.369 38.25 362.369 39.625V59.5938C362.369 61.1562 362.827 62.4375 363.744 63.4375C364.66 64.4167 365.775 64.9062 367.087 64.9062C368.462 64.9062 369.608 64.3646 370.525 63.2812C371.442 62.1771 371.9 60.9479 371.9 59.5938V56.625C371.9 56.4583 371.983 56.375 372.15 56.375H379.4C379.567 56.375 379.65 56.4583 379.65 56.625V59.5938C379.65 61.9896 379.087 64.1771 377.962 66.1562C376.817 68.1146 375.306 69.6875 373.431 70.875C371.556 72.0417 369.442 72.625 367.087 72.625Z" fill="white"/>
</svg>
